<?xml version="1.0" encoding="UTF-8" standalone="no"?><!DOCTYPE svg PUBLIC "-//W3C//DTD SVG 1.1//EN" "http://www.w3.org/Graphics/SVG/1.1/DTD/svg11.dtd"><svg class="icon-for-text" width="12" height="12" viewBox="0 0 512 512" version="1.1" xmlns="http://www.w3.org/2000/svg" xmlns:xlink="http://www.w3.org/1999/xlink" xml:space="preserve" xmlns:serif="http://www.serif.com/" style="fill-rule:evenodd;clip-rule:evenodd;stroke-linejoin:round;stroke-miterlimit:1.41421;"><path d="M502.3,190.8c3.9,-3.1 9.7,-0.2 9.7,4.7l0,204.5c0,26.5 -21.5,48 -48,48l-416,0c-26.5,0 -48,-21.5 -48,-48l0,-204.4c0,-5 5.7,-7.8 9.7,-4.7c22.4,17.4 52.1,39.5 154.1,113.6c21.1,15.4 56.7,47.8 92.2,47.6c35.7,0.3 72,-32.8 92.3,-47.6c102,-74.1 131.6,-96.3 154,-113.7Zm-246.3,129.2c23.2,0.4 56.6,-29.2 73.4,-41.4c132.7,-96.3 142.8,-104.7 173.4,-128.7c5.8,-4.5 9.2,-11.5 9.2,-18.9l0,-19c0,-26.5 -21.5,-48 -48,-48l-416,0c-26.5,0 -48,21.5 -48,48l0,19c0,7.4 3.4,14.3 9.2,18.9c30.6,23.9 40.7,32.4 173.4,128.7c16.8,12.2 50.2,41.8 73.4,41.4Z" style="fill:#56a03b;fill-rule:nonzero;"/></svg>