<?xml version="1.0" encoding="UTF-8" standalone="no"?><!DOCTYPE svg PUBLIC "-//W3C//DTD SVG 1.1//EN" "http://www.w3.org/Graphics/SVG/1.1/DTD/svg11.dtd"><svg class="icon-for-text" width="12" height="12" viewBox="0 0 512 512" version="1.1" xmlns="http://www.w3.org/2000/svg" xmlns:xlink="http://www.w3.org/1999/xlink" xml:space="preserve" xmlns:serif="http://www.serif.com/" style="fill-rule:evenodd;clip-rule:evenodd;stroke-linejoin:round;stroke-miterlimit:1.41421;"><path d="M301.148,394.702l-79.2,79.19c-50.778,50.799 -133.037,50.824 -183.84,0c-50.799,-50.778 -50.824,-133.037 0,-183.84l79.19,-79.2c1.156,-1.156 2.334,-2.291 3.532,-3.403c7.55,-7.005 19.795,-2.004 20.208,8.286c0.193,4.807 0.598,9.607 1.216,14.384c0.481,3.717 -0.746,7.447 -3.397,10.096c-16.48,16.469 -75.142,75.128 -75.3,75.286c-36.738,36.759 -36.731,96.188 0,132.94c36.759,36.738 96.188,36.731 132.94,0l79.2,-79.2l0.36,-0.36c36.301,-36.672 36.14,-96.07 -0.37,-132.58c-8.214,-8.214 -17.577,-14.58 -27.585,-19.109c-4.566,-2.066 -7.426,-6.667 -7.134,-11.67c0.301,-5.184 1.251,-10.311 2.826,-15.259c2.103,-6.601 9.531,-9.961 15.919,-7.28c15.073,6.324 29.187,15.62 41.435,27.868c50.688,50.689 50.679,133.17 0,183.851Zm-90.296,-93.554c12.248,12.248 26.362,21.544 41.435,27.868c6.388,2.68 13.816,-0.68 15.919,-7.28c1.575,-4.948 2.525,-10.075 2.826,-15.259c0.292,-5.003 -2.569,-9.604 -7.134,-11.67c-10.008,-4.528 -19.371,-10.894 -27.585,-19.109c-36.51,-36.51 -36.671,-95.908 -0.37,-132.58l0.36,-0.36l79.2,-79.2c36.752,-36.731 96.181,-36.738 132.94,0c36.731,36.752 36.738,96.181 0,132.94c-0.157,0.157 -58.819,58.817 -75.3,75.286c-2.651,2.65 -3.878,6.379 -3.397,10.096c0.617,4.774 1.023,9.574 1.216,14.384c0.413,10.291 12.659,15.291 20.208,8.286c1.198,-1.112 2.376,-2.247 3.532,-3.403l79.19,-79.2c50.824,-50.803 50.799,-133.062 0,-183.84c-50.802,-50.824 -133.062,-50.799 -183.84,0l-79.2,79.19c-50.679,50.682 -50.688,133.163 0,183.851Z" style="fill:#56a03b;fill-rule:nonzero;"/></svg>