<?xml version="1.0" encoding="utf-8"?>
<!-- Generator: Adobe Illustrator 16.0.4, SVG Export Plug-In . SVG Version: 6.00 Build 0)  -->
<!DOCTYPE svg PUBLIC "-//W3C//DTD SVG 1.1//EN" "http://www.w3.org/Graphics/SVG/1.1/DTD/svg11.dtd">
<svg version="1.1" id="Ebene_1" xmlns="http://www.w3.org/2000/svg" xmlns:xlink="http://www.w3.org/1999/xlink" x="0px" y="0px"
	 width="100px" height="99.999px" viewBox="0 0 100 99.999" enable-background="new 0 0 100 99.999" xml:space="preserve">
<g>
	<path fill="#56A03B" d="M87.5,0h-75C5.625,0,0,5.625,0,12.5v74.999c0,6.875,5.625,12.5,12.5,12.5h75c6.875,0,12.5-5.625,12.5-12.5
		V12.5C100,5.625,94.375,0,87.5,0z"/>
</g>
<g id="Outline_Color_copy_2">
	<path fill="#FFFFFF" d="M42.234,79.444h12.014V50.375h8.014l1.061-10.016h-9.074l0.014-5.017c0-2.611,0.246-4.011,3.994-4.011h5.01
		V21.31H55.25c-9.627,0-13.014,4.863-13.014,13.031v6.014h-6.002v10.021h6.002v29.069H42.234z"/>
</g>
</svg>
