<?xml version="1.0" encoding="utf-8"?>
<!-- Generator: Adobe Illustrator 16.0.4, SVG Export Plug-In . SVG Version: 6.00 Build 0)  -->
<!DOCTYPE svg PUBLIC "-//W3C//DTD SVG 1.1//EN" "http://www.w3.org/Graphics/SVG/1.1/DTD/svg11.dtd">
<svg version="1.1" id="Ebene_1" xmlns="http://www.w3.org/2000/svg" xmlns:xlink="http://www.w3.org/1999/xlink" x="0px" y="0px"
	 width="106px" height="106px" viewBox="0 0 106 106" enable-background="new 0 0 106 106" xml:space="preserve">
<path fill="#FFFFFF" d="M45.237,82.445h12.011v-29.07h8.016l1.06-10.015h-9.074l0.015-5.017c0-2.611,0.245-4.011,3.993-4.011h5.011
	V24.31H58.25c-9.626,0-13.013,4.863-13.013,13.031v6.014h-6.001v10.02h6.001V82.445z"/>
<path fill="#245B9D" d="M90.5,3h-75C8.625,3,3,8.625,3,15.5v75C3,97.375,8.625,103,15.5,103h75c6.875,0,12.5-5.625,12.5-12.5v-75
	C103,8.625,97.375,3,90.5,3z M65.264,53.375h-8.016v29.07H45.237v-29.07h-6.001v-10.02h6.001v-6.014
	c0-8.168,3.387-13.031,13.013-13.031h8.018v10.022h-5.011c-3.748,0-3.993,1.4-3.993,4.011l-0.015,5.017h9.074L65.264,53.375z"/>
</svg>
