<?xml version="1.0" encoding="utf-8"?>
<!-- Generator: Adobe Illustrator 16.0.4, SVG Export Plug-In . SVG Version: 6.00 Build 0)  -->
<!DOCTYPE svg PUBLIC "-//W3C//DTD SVG 1.1//EN" "http://www.w3.org/Graphics/SVG/1.1/DTD/svg11.dtd">
<svg version="1.1" id="Ebene_1" xmlns="http://www.w3.org/2000/svg" xmlns:xlink="http://www.w3.org/1999/xlink" x="0px" y="0px"
	 width="106px" height="106px" viewBox="0 0 106 106" enable-background="new 0 0 106 106" xml:space="preserve">
<path fill="#C4C4C4" d="M90.5,3h-75C8.625,3,3,8.625,3,15.5v75C3,97.375,8.625,103,15.5,103h75c6.875,0,12.5-5.625,12.5-12.5v-75
	C103,8.625,97.375,3,90.5,3z M65.263,53.375h-8.015v29.07H45.237v-29.07h-6.001V43.355h6.001v-6.014
	c0-8.168,3.387-13.031,13.013-13.031h8.018v10.022h-5.011c-3.748,0-3.994,1.4-3.994,4.011l-0.014,5.017h9.074L65.263,53.375z"/>
</svg>
