<?xml version="1.0" encoding="utf-8"?>
<!-- Generator: Adobe Illustrator 16.0.4, SVG Export Plug-In . SVG Version: 6.00 Build 0)  -->
<!DOCTYPE svg PUBLIC "-//W3C//DTD SVG 1.1//EN" "http://www.w3.org/Graphics/SVG/1.1/DTD/svg11.dtd">
<svg version="1.1" id="Ebene_1" xmlns="http://www.w3.org/2000/svg" xmlns:xlink="http://www.w3.org/1999/xlink" x="0px" y="0px"
	 width="106px" height="106px" viewBox="0 0 106 106" enable-background="new 0 0 106 106" xml:space="preserve">
<g>
	<path fill="#C4C4C4" d="M50.222,37.734c-0.77-5.863-5.02-10.569-9.481-10.707c-4.465-0.131-7.459,4.355-6.69,10.225
		c0.77,5.862,5.017,10.729,9.481,10.856C47.996,48.239,50.991,43.597,50.222,37.734z"/>
	<path fill="#C4C4C4" d="M47.249,60.186c-1.312-0.42-2.762-0.672-4.309-0.689c-6.656-0.076-12.616,4.059-12.616,9.014
		c0,5.061,4.804,9.27,11.457,9.27c9.353,0,12.619-3.953,12.618-9.014c0-0.605-0.081-1.203-0.212-1.787
		C53.452,64.119,50.862,62.697,47.249,60.186z"/>
	<path fill="#C4C4C4" d="M90.5,3h-75C8.625,3,3,8.625,3,15.5v75C3,97.375,8.625,103,15.5,103h75c6.875,0,12.5-5.625,12.5-12.5v-75
		C103,8.625,97.375,3,90.5,3z M41.819,80.551c-9.625,0-17.747-3.922-17.747-10.182c0-6.355,7.406-12.48,17.031-12.484
		c1.05,0,2.016-0.012,3.003-0.012c-1.316-1.281-2.354-2.826-2.354-4.762c0-1.146,0.356-2.201,0.875-3.18
		c-0.524,0.039-1.059,0.164-1.608,0.164c-7.903,0-13.2-5.416-13.2-12.381c0-6.816,7.314-12.27,15.084-12.27
		c4.332,0,16.984,0,16.984,0l-2.753,2.75h-6.2c3.644,0,5.519,5.316,5.519,9.672c0,3.666-2.031,6.335-4.894,8.572
		c-2.801,2.187-3.328,3.103-3.328,4.959c0,1.588,2.994,4.284,4.562,5.391c4.579,3.246,6.061,6.252,6.062,11.271
		C58.854,74.32,52.794,80.551,41.819,80.551z M81.929,52.978h-8.267v8.266h-5.509v-8.266h-8.266V47.47h8.266v-8.267h5.509v8.267
		h8.267V52.978z"/>
</g>
</svg>
