<?xml version="1.0" encoding="utf-8"?>
<!-- Generator: Adobe Illustrator 16.0.4, SVG Export Plug-In . SVG Version: 6.00 Build 0)  -->
<!DOCTYPE svg PUBLIC "-//W3C//DTD SVG 1.1//EN" "http://www.w3.org/Graphics/SVG/1.1/DTD/svg11.dtd">
<svg version="1.1" id="Ebene_1" xmlns="http://www.w3.org/2000/svg" xmlns:xlink="http://www.w3.org/1999/xlink" x="0px" y="0px"
	 width="100px" height="99.999px" viewBox="0 0 100 99.999" enable-background="new 0 0 100 99.999" xml:space="preserve">
<g id="Outline_Color_copy_2">
	<path fill="#FFFFFF" d="M42.234,79.444h12.014V50.375h8.014l1.061-10.016h-9.074l0.014-5.017c0-2.611,0.246-4.011,3.994-4.011h5.01
		V21.31H55.25c-9.627,0-13.014,4.863-13.014,13.031v6.014h-6.002v10.021h6.002v29.069H42.234z"/>
</g>
<g id="Outline_Color_copy_2_1_">
	<path fill="#FFFFFF" d="M57.279,26.685c-5.201,1.893-8.488,6.774-8.111,12.117l0.123,2.062l-2.08-0.253
		c-7.572-0.967-14.189-4.248-19.809-9.762l-2.748-2.733l-0.707,2.021c-1.5,4.5-0.541,9.258,2.58,12.455
		c1.664,1.766,1.289,2.021-1.58,0.965c-0.998-0.334-1.873-0.588-1.955-0.463c-0.291,0.297,0.707,4.123,1.498,5.64
		c1.082,2.104,3.287,4.163,5.703,5.386l2.039,0.967l-2.412,0.041c-2.332,0-2.412,0.041-2.16,0.93
		c0.83,2.731,4.117,5.639,7.781,6.898l2.58,0.883l-2.246,1.348c-3.328,1.938-7.24,3.031-11.154,3.111
		c-1.873,0.041-3.412,0.211-3.412,0.338c0,0.42,5.08,2.774,8.033,3.703c8.863,2.734,19.391,1.555,27.299-3.115
		c5.617-3.324,11.232-9.931,13.857-16.326c1.418-3.405,2.83-9.633,2.83-12.617c0-1.936,0.125-2.189,2.457-4.5
		c1.371-1.346,2.66-2.818,2.91-3.24c0.416-0.801,0.373-0.801-1.748-0.084c-3.537,1.264-4.037,1.096-2.287-0.797
		c1.289-1.346,2.83-3.788,2.83-4.501c0-0.125-0.621,0.084-1.332,0.463c-0.746,0.422-2.41,1.054-3.662,1.429l-2.258,0.713
		L68.1,28.372c-1.123-0.757-2.703-1.598-3.537-1.852C62.439,25.929,59.193,26.013,57.279,26.685z"/>
</g>
<g id="Outline_Color_copy_2_2_">
	<path fill="#FFFFFF" d="M67.754,60.747c-0.5,0-0.863,0.141-1.084,0.439c-0.219,0.281-0.324,0.768-0.324,1.438v1.619h2.787v-1.619
		c0-0.674-0.113-1.156-0.334-1.438C68.59,60.888,68.232,60.747,67.754,60.747z"/>
	<path fill="#FFFFFF" d="M56.887,60.69c-0.229,0-0.449,0.047-0.668,0.154c-0.217,0.105-0.438,0.268-0.65,0.488v9.988
		c0.254,0.256,0.504,0.451,0.748,0.564c0.242,0.113,0.492,0.174,0.76,0.174c0.389,0,0.668-0.111,0.85-0.342
		c0.182-0.227,0.275-0.586,0.275-1.105v-8.281c0-0.537-0.109-0.951-0.332-1.229C57.637,60.829,57.307,60.69,56.887,60.69z"/>
	<path fill="#FFFFFF" d="M74.404,48.264c-2.592-2.588-24.412-2.621-24.412-2.619c0-0.002-21.816,0.031-24.414,2.617
		c-2.598,2.59-2.604,15.379-2.604,15.452c0,0.096,0.006,12.861,2.604,15.453c2.598,2.586,24.414,2.641,24.414,2.641
		s21.82-0.055,24.412-2.637c2.605-2.602,2.627-15.455,2.627-15.455C77.031,63.642,77.004,50.854,74.404,48.264z M39.619,55.8h-3.674
		v18.574h-3.555V55.8h-3.672v-3.159h10.9V55.8L39.619,55.8z M50.006,74.37h-3.146v-1.76c-0.586,0.652-1.188,1.146-1.824,1.484
		c-0.629,0.346-1.236,0.508-1.828,0.508c-0.732,0-1.273-0.234-1.65-0.713c-0.361-0.48-0.551-1.189-0.551-2.15V58.333h3.148v12.301
		c0,0.381,0.064,0.656,0.193,0.826c0.139,0.172,0.354,0.256,0.645,0.256c0.23,0,0.527-0.113,0.883-0.34
		c0.354-0.225,0.676-0.512,0.979-0.855V58.339h3.152V74.37L50.006,74.37z M61.445,71.062c0,1.135-0.244,2-0.738,2.609
		c-0.492,0.605-1.213,0.902-2.146,0.902c-0.621,0-1.166-0.111-1.646-0.346c-0.482-0.234-0.938-0.59-1.348-1.086v1.23h-3.186V52.639
		h3.186v7c0.428-0.486,0.877-0.863,1.352-1.113c0.48-0.256,0.963-0.379,1.451-0.379c1,0,1.764,0.342,2.285,1.018
		c0.531,0.688,0.791,1.689,0.791,3V71.062L61.445,71.062z M72.379,66.745H66.35v3.016c0,0.846,0.102,1.432,0.309,1.76
		c0.211,0.326,0.562,0.484,1.068,0.484c0.52,0,0.885-0.137,1.096-0.414c0.203-0.277,0.314-0.883,0.314-1.83v-0.73h3.242v0.822
		c0,1.645-0.395,2.883-1.189,3.719c-0.785,0.828-1.967,1.24-3.535,1.24c-1.41,0-2.523-0.438-3.336-1.322
		c-0.811-0.879-1.223-2.088-1.223-3.637v-7.199c0-1.387,0.449-2.523,1.342-3.396c0.891-0.877,2.035-1.314,3.449-1.314
		c1.443,0,2.555,0.406,3.33,1.217s1.16,1.975,1.16,3.494v4.092H72.379z"/>
	<path fill="#FFFFFF" d="M67.74,42.366h-3.551v-1.952c-0.645,0.718-1.328,1.269-2.041,1.644c-0.709,0.377-1.395,0.563-2.059,0.563
		c-0.826,0-1.439-0.267-1.855-0.789c-0.414-0.526-0.623-1.312-0.623-2.368V24.701h3.545v13.542c0,0.418,0.082,0.721,0.23,0.908
		c0.145,0.188,0.391,0.279,0.721,0.279c0.26,0,0.59-0.125,0.988-0.371c0.396-0.246,0.764-0.563,1.094-0.95V24.703h3.551V42.366
		L67.74,42.366z"/>
	<path fill="#FFFFFF" d="M53.33,25.54c-0.939-0.857-2.145-1.285-3.611-1.285c-1.607,0-2.896,0.406-3.852,1.217
		c-0.959,0.811-1.438,1.898-1.434,3.271v9.153c0,1.5,0.469,2.693,1.395,3.582c0.936,0.886,2.18,1.328,3.729,1.328
		c1.615,0,2.877-0.43,3.803-1.291c0.918-0.859,1.377-2.045,1.377-3.553V28.84C54.734,27.498,54.266,26.393,53.33,25.54z
		 M51.117,38.231c0,0.471-0.141,0.843-0.424,1.117c-0.287,0.269-0.664,0.401-1.143,0.401c-0.473,0-0.834-0.131-1.086-0.396
		c-0.252-0.268-0.379-0.643-0.379-1.123v-9.62c0-0.388,0.139-0.698,0.404-0.938c0.271-0.236,0.623-0.355,1.061-0.355
		c0.463,0,0.844,0.119,1.135,0.355c0.289,0.236,0.436,0.551,0.436,0.938v9.62H51.117z"/>
	<polygon fill="#FFFFFF" points="34.764,18.426 30.738,18.426 35.496,32.879 35.496,42.366 39.492,42.366 39.492,32.43 
		44.141,18.426 40.078,18.426 37.609,27.993 37.359,27.993 	"/>
</g>
<path d="M47.227,34.688c-0.768-5.862-5.018-10.568-9.48-10.706c-4.467-0.132-7.459,4.356-6.689,10.225
	c0.768,5.862,5.016,10.728,9.48,10.856C45.002,45.195,47.996,40.553,47.227,34.688z"/>
<path d="M44.256,57.141c-1.312-0.42-2.764-0.672-4.311-0.688c-6.654-0.076-12.615,4.057-12.615,9.012
	c0,5.061,4.805,9.27,11.457,9.27c9.354,0,12.619-3.953,12.619-9.014c0-0.605-0.082-1.203-0.213-1.787
	C50.459,61.074,47.867,59.652,44.256,57.141z"/>
<path d="M38.824,77.506c-9.625,0-17.748-3.922-17.748-10.182c0-6.355,7.406-12.48,17.031-12.484c1.051,0,2.018-0.012,3.004-0.012
	c-1.314-1.281-2.354-2.826-2.354-4.761c0-1.146,0.355-2.201,0.875-3.18c-0.525,0.039-1.061,0.164-1.609,0.164
	c-7.902,0-13.199-5.416-13.199-12.381c0-6.816,7.314-12.27,15.084-12.27c4.332,0,16.984,0,16.984,0l-2.752,2.75h-6.201
	c3.645,0,5.52,5.314,5.52,9.672c0,3.666-2.031,6.334-4.895,8.572c-2.801,2.188-3.328,3.103-3.328,4.959
	c0,1.588,2.994,4.283,4.562,5.39c4.578,3.246,6.059,6.252,6.059,11.271C55.857,71.275,49.799,77.506,38.824,77.506z M78.934,49.934
	h-8.266v8.265h-5.51v-8.265h-8.266v-5.508h8.266V36.16h5.51v8.267h8.266V49.934z"/>
<path fill="#56A03B" d="M87.506-0.043h-75c-6.875,0-12.5,5.625-12.5,12.5v74.999c0,6.875,5.625,12.5,12.5,12.5h75
	c6.875,0,12.5-5.625,12.5-12.5V12.457C100.006,5.582,94.381-0.043,87.506-0.043z"/>
<path fill="#FFFFFF" d="M49.799,53.744c-1.568-1.107-4.562-3.802-4.562-5.39c0-1.856,0.527-2.772,3.328-4.959
	c2.863-2.237,4.895-4.906,4.895-8.572c0-4.355-1.875-9.672-5.52-9.672h6.201l2.752-2.75c0,0-12.652,0-16.984,0
	c-7.77,0-15.084,5.453-15.084,12.27c0,6.965,5.297,12.381,13.199,12.381c0.551,0,1.084-0.125,1.609-0.164
	c-0.52,0.979-0.875,2.033-0.875,3.18c0,1.936,1.037,3.48,2.354,4.761c-0.986,0-1.953,0.012-3.004,0.012
	c-9.625,0.004-17.031,6.129-17.031,12.484c0,6.26,8.123,10.182,17.748,10.182c10.975,0,17.035-6.229,17.035-12.49
	C55.857,59.996,54.377,56.99,49.799,53.744z M40.535,45.063c-4.465-0.127-8.711-4.993-9.48-10.855
	c-0.77-5.869,2.225-10.355,6.689-10.225c4.463,0.138,8.713,4.844,9.482,10.707S45.002,45.195,40.535,45.063z M38.785,74.734
	c-6.652,0-11.457-4.209-11.457-9.27c0-4.955,5.961-9.088,12.617-9.012c1.547,0.016,2.996,0.268,4.309,0.688
	c3.613,2.512,6.203,3.934,6.938,6.793c0.131,0.584,0.213,1.182,0.213,1.787C51.404,70.781,48.139,74.734,38.785,74.734z"/>
<polygon fill="#FFFFFF" points="70.668,36.16 65.158,36.16 65.158,44.426 56.893,44.426 56.893,49.934 65.158,49.934 65.158,58.199 
	70.668,58.199 70.668,49.934 78.934,49.934 78.934,44.426 70.668,44.426 "/>
</svg>
