<?xml version="1.0" encoding="utf-8"?>
<!-- Generator: Adobe Illustrator 16.0.4, SVG Export Plug-In . SVG Version: 6.00 Build 0)  -->
<!DOCTYPE svg PUBLIC "-//W3C//DTD SVG 1.1//EN" "http://www.w3.org/Graphics/SVG/1.1/DTD/svg11.dtd">
<svg version="1.1" id="Ebene_1" xmlns="http://www.w3.org/2000/svg" xmlns:xlink="http://www.w3.org/1999/xlink" x="0px" y="0px"
	 width="106px" height="106px" viewBox="0 0 106 106" enable-background="new 0 0 106 106" xml:space="preserve">
<path fill="#FFFFFF" d="M24.072,70.369c0,6.26,8.122,10.182,17.747,10.182c10.975,0,17.035-6.23,17.037-12.492
	c-0.002-5.019-1.483-8.024-6.062-11.271c-1.568-1.106-4.562-3.803-4.562-5.391c0-1.856,0.527-2.772,3.328-4.959
	c2.863-2.237,4.894-4.906,4.894-8.572c0-4.356-1.875-9.672-5.519-9.672h6.2l2.753-2.75c0,0-12.652,0-16.984,0
	c-7.77,0-15.084,5.454-15.084,12.27c0,6.965,5.297,12.381,13.2,12.381c0.549,0,1.084-0.125,1.608-0.164
	c-0.519,0.979-0.875,2.034-0.875,3.18c0,1.936,1.038,3.481,2.354,4.762c-0.987,0-1.953,0.012-3.003,0.012
	C31.478,57.889,24.072,64.014,24.072,70.369z M43.532,48.108c-4.464-0.127-8.711-4.994-9.481-10.856
	c-0.769-5.87,2.225-10.356,6.69-10.225c4.461,0.138,8.711,4.844,9.481,10.707C50.991,43.597,47.996,48.239,43.532,48.108z
	 M47.249,60.186c3.613,2.512,6.203,3.934,6.938,6.797c0.131,0.584,0.211,1.182,0.211,1.787c0.002,5.061-3.265,9.014-12.617,9.014
	c-6.653,0-11.457-4.209-11.457-9.271c0-4.953,5.96-9.09,12.616-9.014C44.487,59.514,45.937,59.766,47.249,60.186z"/>
<polygon fill="#FFFFFF" points="59.887,52.978 68.152,52.978 68.152,61.244 73.662,61.244 73.662,52.978 81.93,52.978 81.93,47.47 
	73.662,47.47 73.662,39.203 68.152,39.203 68.152,47.47 59.887,47.47 "/>
<path fill="#D24632" d="M50.222,37.734c-0.77-5.863-5.02-10.569-9.481-10.707c-4.465-0.131-7.459,4.355-6.69,10.225
	c0.77,5.862,5.017,10.729,9.481,10.856C47.996,48.239,50.991,43.597,50.222,37.734z"/>
<path fill="#D24632" d="M30.324,68.512c0,5.062,4.804,9.271,11.457,9.271c9.353,0,12.619-3.953,12.617-9.014
	c0-0.605-0.08-1.203-0.211-1.787c-0.735-2.863-3.326-4.285-6.938-6.797c-1.312-0.42-2.762-0.672-4.309-0.688
	C36.284,59.422,30.324,63.559,30.324,68.512z"/>
<path fill="#D24632" d="M90.5,3h-75C8.625,3,3,8.625,3,15.5v75C3,97.375,8.625,103,15.5,103h75c6.875,0,12.5-5.625,12.5-12.5v-75
	C103,8.625,97.375,3,90.5,3z M41.752,53.111c0-1.146,0.356-2.201,0.875-3.18c-0.524,0.039-1.059,0.164-1.608,0.164
	c-7.903,0-13.2-5.416-13.2-12.381c0-6.816,7.314-12.27,15.084-12.27c4.332,0,16.984,0,16.984,0l-2.753,2.75h-6.2
	c3.644,0,5.519,5.316,5.519,9.672c0,3.666-2.031,6.335-4.894,8.572c-2.801,2.187-3.328,3.103-3.328,4.959
	c0,1.588,2.994,4.285,4.562,5.391c4.579,3.246,6.061,6.252,6.062,11.271c-0.002,6.262-6.062,12.492-17.037,12.492
	c-9.625,0-17.747-3.922-17.747-10.182c0-6.355,7.406-12.48,17.031-12.484c1.05,0,2.016-0.012,3.003-0.012
	C42.79,56.592,41.752,55.047,41.752,53.111z M81.93,52.978h-8.268v8.266h-5.51v-8.266h-8.266V47.47h8.266v-8.267h5.51v8.267h8.268
	V52.978z"/>
</svg>
