<?xml version="1.0" encoding="utf-8"?>
<!-- Generator: Adobe Illustrator 16.0.4, SVG Export Plug-In . SVG Version: 6.00 Build 0)  -->
<!DOCTYPE svg PUBLIC "-//W3C//DTD SVG 1.1//EN" "http://www.w3.org/Graphics/SVG/1.1/DTD/svg11.dtd">
<svg version="1.1" id="Ebene_1" xmlns="http://www.w3.org/2000/svg" xmlns:xlink="http://www.w3.org/1999/xlink" x="0px" y="0px"
	 width="100px" height="99.999px" viewBox="0 0 100 99.999" enable-background="new 0 0 100 99.999" xml:space="preserve">
<g id="Outline_Color_copy_2">
	<path fill="#FFFFFF" d="M42.234,79.444h12.014V50.375h8.014l1.061-10.016h-9.074l0.014-5.017c0-2.611,0.246-4.011,3.994-4.011h5.01
		V21.31H55.25c-9.627,0-13.014,4.863-13.014,13.031v6.014h-6.002v10.021h6.002v29.069H42.234z"/>
</g>
<g>
	<path fill="#56A03B" d="M87.5,0h-75C5.625,0,0,5.625,0,12.5v74.999c0,6.875,5.625,12.5,12.5,12.5h75c6.875,0,12.5-5.625,12.5-12.5
		V12.5C100,5.625,94.375,0,87.5,0z"/>
</g>
<g id="Outline_Color_copy_2_1_">
	<path fill="#FFFFFF" d="M57.279,26.685c-5.201,1.893-8.488,6.774-8.111,12.117l0.123,2.062l-2.08-0.253
		c-7.572-0.967-14.189-4.248-19.809-9.762l-2.748-2.733l-0.707,2.021c-1.5,4.5-0.541,9.258,2.58,12.455
		c1.664,1.766,1.289,2.021-1.58,0.965c-0.998-0.334-1.873-0.588-1.955-0.463c-0.291,0.297,0.707,4.123,1.498,5.64
		c1.082,2.104,3.287,4.163,5.703,5.386l2.039,0.967l-2.412,0.041c-2.332,0-2.412,0.041-2.16,0.93
		c0.83,2.731,4.117,5.639,7.781,6.898l2.58,0.883l-2.246,1.348c-3.328,1.938-7.24,3.031-11.154,3.111
		c-1.873,0.041-3.412,0.211-3.412,0.338c0,0.42,5.08,2.774,8.033,3.703c8.863,2.734,19.391,1.555,27.299-3.115
		c5.617-3.324,11.232-9.931,13.857-16.326c1.418-3.405,2.83-9.633,2.83-12.617c0-1.936,0.125-2.189,2.457-4.5
		c1.371-1.346,2.66-2.818,2.91-3.24c0.416-0.801,0.373-0.801-1.748-0.084c-3.537,1.264-4.037,1.096-2.287-0.797
		c1.289-1.346,2.83-3.788,2.83-4.501c0-0.125-0.621,0.084-1.332,0.463c-0.746,0.422-2.41,1.054-3.662,1.429l-2.258,0.713
		L68.1,28.372c-1.123-0.757-2.703-1.598-3.537-1.852C62.439,25.929,59.193,26.013,57.279,26.685z"/>
</g>
</svg>
