<?xml version="1.0" encoding="utf-8"?>
<!-- Generator: Adobe Illustrator 16.0.4, SVG Export Plug-In . SVG Version: 6.00 Build 0)  -->
<!DOCTYPE svg PUBLIC "-//W3C//DTD SVG 1.1//EN" "http://www.w3.org/Graphics/SVG/1.1/DTD/svg11.dtd">
<svg version="1.1" id="Ebene_1" xmlns="http://www.w3.org/2000/svg" xmlns:xlink="http://www.w3.org/1999/xlink" x="0px" y="0px"
	 width="106px" height="106px" viewBox="425.091 98.841 106 106" enable-background="new 425.091 98.841 106 106"
	 xml:space="preserve">
<path fill="#C4C4C4" d="M515.591,101.841h-75c-6.875,0-12.5,5.625-12.5,12.5v74.999c0,6.875,5.625,12.5,12.5,12.5h75
	c6.875,0,12.5-5.625,12.5-12.5v-74.999C528.091,107.466,522.466,101.841,515.591,101.841z M506.69,134.378
	c-0.25,0.422-1.539,1.895-2.911,3.24c-2.331,2.312-2.456,2.565-2.456,4.5c0,2.984-1.413,9.211-2.831,12.618
	c-2.624,6.396-8.241,13.002-13.858,16.326c-7.907,4.67-18.435,5.85-27.299,3.115c-2.953-0.929-8.032-3.283-8.032-3.703
	c0-0.128,1.539-0.297,3.412-0.338c3.913-0.081,7.826-1.173,11.154-3.111l2.246-1.348l-2.58-0.883
	c-3.663-1.261-6.95-4.167-7.782-6.899c-0.25-0.888-0.169-0.929,2.161-0.929l2.412-0.041l-2.039-0.967
	c-2.415-1.223-4.62-3.281-5.702-5.386c-0.792-1.517-1.789-5.342-1.499-5.639c0.082-0.125,0.957,0.128,1.955,0.463
	c2.869,1.054,3.244,0.801,1.58-0.966c-3.121-3.197-4.078-7.954-2.58-12.455l0.707-2.02l2.749,2.733
	c5.618,5.514,12.236,8.795,19.808,9.762l2.08,0.253l-0.124-2.061c-0.376-5.343,2.911-10.225,8.112-12.117
	c1.915-0.673,5.161-0.757,7.285-0.166c0.835,0.254,2.414,1.095,3.537,1.852l2.04,1.389l2.258-0.713
	c1.251-0.375,2.915-1.007,3.662-1.429c0.71-0.378,1.332-0.588,1.332-0.463c0,0.713-1.541,3.156-2.83,4.501
	c-1.751,1.892-1.251,2.061,2.287,0.797C507.062,133.577,507.106,133.577,506.69,134.378z"/>
</svg>
