<?xml version="1.0" encoding="utf-8"?>
<!-- Generator: Adobe Illustrator 16.0.4, SVG Export Plug-In . SVG Version: 6.00 Build 0)  -->
<!DOCTYPE svg PUBLIC "-//W3C//DTD SVG 1.1//EN" "http://www.w3.org/Graphics/SVG/1.1/DTD/svg11.dtd">
<svg version="1.1" id="Ebene_1" xmlns="http://www.w3.org/2000/svg" xmlns:xlink="http://www.w3.org/1999/xlink" x="0px" y="0px"
	 width="106px" height="106px" viewBox="0 0 106 106" enable-background="new 0 0 106 106" xml:space="preserve">
<g>
	<path fill="#00ACE4" d="M90.5,3.001h-75C8.625,3.001,3,8.626,3,15.501V90.5C3,97.375,8.625,103,15.5,103h75
		c6.875,0,12.5-5.625,12.5-12.5V15.501C103,8.626,97.375,3.001,90.5,3.001z"/>
</g>
<g id="Outline_Color_copy_2">
	<path fill="#FFFFFF" d="M60.28,29.686c-5.201,1.893-8.488,6.774-8.112,12.117l0.124,2.062l-2.08-0.253
		c-7.571-0.967-14.189-4.248-19.808-9.762l-2.749-2.733l-0.707,2.021c-1.499,4.5-0.541,9.258,2.58,12.455
		c1.665,1.767,1.289,2.021-1.58,0.965c-0.998-0.334-1.873-0.588-1.955-0.463c-0.291,0.297,0.707,4.123,1.499,5.64
		c1.082,2.104,3.287,4.163,5.702,5.386l2.039,0.967l-2.412,0.041c-2.331,0-2.412,0.041-2.161,0.93
		c0.832,2.731,4.119,5.639,7.782,6.898l2.58,0.883l-2.246,1.348c-3.328,1.938-7.241,3.031-11.154,3.111
		c-1.873,0.041-3.412,0.211-3.412,0.338c0,0.42,5.08,2.774,8.032,3.703c8.864,2.734,19.392,1.555,27.299-3.115
		c5.617-3.323,11.234-9.931,13.858-16.326c1.418-3.405,2.831-9.633,2.831-12.617c0-1.936,0.125-2.189,2.456-4.5
		c1.372-1.346,2.661-2.818,2.911-3.24c0.415-0.801,0.372-0.801-1.748-0.084c-3.538,1.264-4.038,1.096-2.287-0.797
		c1.289-1.346,2.83-3.788,2.83-4.501c0-0.125-0.622,0.084-1.332,0.463c-0.747,0.422-2.411,1.054-3.662,1.429l-2.258,0.713
		l-2.04-1.389c-1.123-0.757-2.702-1.598-3.537-1.852C65.441,28.93,62.195,29.014,60.28,29.686z"/>
</g>
</svg>
