<?xml version="1.0" encoding="UTF-8" standalone="no"?><!DOCTYPE svg PUBLIC "-//W3C//DTD SVG 1.1//EN" "http://www.w3.org/Graphics/SVG/1.1/DTD/svg11.dtd"><svg width="575" height="60" viewBox="0 0 575 60" version="1.1" xmlns="http://www.w3.org/2000/svg" xmlns:xlink="http://www.w3.org/1999/xlink" xml:space="preserve" xmlns:serif="http://www.serif.com/" style="fill-rule:evenodd;clip-rule:evenodd;stroke-linejoin:round;stroke-miterlimit:1.41421;"><g><g id="Ebene_1_1_"><path d="M568.198,58.727l4.2,0l0,-4.199l-4.2,0l0,4.199Zm-18.298,0l4,0l0,-7.6c0,-2 0.604,-5.102 3.5,-5.102c2.602,0 2.602,2.5 2.602,4.398l0,8.2l4,0l0,-9.801c0,-3.5 -1.604,-6.103 -5.2,-6.103c-2.104,0 -3.8,0.698 -5.104,2.5l-0.102,0l0,-2.098l-3.8,0l0,15.6l0.104,0l0,0.006Zm-4.3,-4.1c-1.5,0.8 -3.198,1.6 -5.1,1.6c-2.5,0 -4.2,-1.396 -4.4,-3.896l10.7,0c0,-5.4 -1.604,-9.305 -7.3,-9.305c-4.804,0 -7.2,3.699 -7.2,8.199c0,5.104 3,8 8.102,8c2.198,0 3.8,-0.396 5.3,-1.199l0,-3.396l-0.102,-0.003Zm-9.5,-5.1c0.2,-2.104 1.302,-3.604 3.602,-3.604c2.302,0 3.2,1.7 3.302,3.604l-6.904,0Zm-21.2,9.2l3.898,0l0,-1.897l0.102,0c1.198,1.698 3,2.198 4.698,2.198c4.7,0 6.5,-3.898 6.5,-8.104c0,-4.3 -1.698,-8 -6.5,-8c-2.1,0 -3.5,0.898 -4.6,2.303l-0.102,0l0,-9l-4,0l0.004,22.5Zm4,-7.7c0,-2.198 1,-4.898 3.604,-4.898c2.6,0 3.3,2.8 3.3,4.898c0,2.102 -0.8,5 -3.398,5c-2.604,0 -3.506,-2.8 -3.506,-5m-8.3,3.6c-1.5,0.8 -3.198,1.6 -5.104,1.6c-2.5,0 -4.196,-1.396 -4.396,-3.896l10.7,0c0,-5.4 -1.604,-9.305 -7.398,-9.305c-4.802,0 -7.2,3.699 -7.2,8.199c0,5.104 3,8 8.104,8c2.2,0 3.8,-0.396 5.3,-1.199l-0.006,-3.399Zm-9.5,-5.1c0.2,-2.104 1.302,-3.604 3.602,-3.604c2.304,0 3.2,1.7 3.304,3.604l-6.906,0Zm-11.098,9.2l4,0l0,-22.5l-4,0l0,22.5Zm-11.7,0l4,0l0,-5.6c0,-2.2 0,-6.3 3.3,-6.3c0.7,0 1.396,0.1 1.802,0.3l0,-4c-0.398,-0.102 -0.802,-0.102 -1.2,-0.102c-2.396,0 -4.102,2.396 -4.198,3.896l-0.102,0l0,-3.5l-3.602,0l0,15.306Zm-16.402,0l12.4,0l0,-3.3l-8.2,0l0,-5.899l7.5,0l0,-3.301l-7.5,0l0,-5.1l8.2,0l0,-3.3l-12.4,0l0,20.9Zm-17.098,0l4.2,0l0,-4.199l-4.2,0l0,4.199Zm-18.3,0l4,0l0,-7.6c0,-2 0.6,-5.102 3.5,-5.102c2.6,0 2.6,2.5 2.6,4.396l0,8.2l4,0l0,-9.802c0,-3.5 -1.6,-6.104 -5.198,-6.104c-2.102,0 -3.802,0.7 -5.102,2.5l-0.104,0l0,-2.094l-3.8,0l0,15.6l0.104,0l0,0.006Zm-4.304,-4.1c-1.5,0.8 -3.196,1.6 -5.102,1.6c-2.5,0 -4.198,-1.396 -4.398,-3.896l10.7,0c0,-5.4 -1.602,-9.305 -7.398,-9.305c-4.802,0 -7.2,3.699 -7.2,8.199c0,5.104 3,8 8.104,8c2.198,0 3.8,-0.396 5.3,-1.199l-0.006,-3.399Zm-9.5,-5.1c0.202,-2.101 1.302,-3.601 3.602,-3.601c2.302,0 3.201,1.7 3.302,3.601l-6.904,0Zm-13.898,9.2l4,0l0,-5.6c0,-2.2 0,-6.3 3.302,-6.3c0.698,0 1.396,0.1 1.802,0.3l0,-4c-0.4,-0.102 -0.802,-0.102 -1.2,-0.102c-2.396,0 -4,2.396 -4.2,3.896l-0.1,0l0,-3.5l-3.604,0l0,15.306Zm-13.9,-4.4c0,-2.4 2.698,-2.7 4.5,-2.7l1.698,0c0,1.2 -0.198,2.3 -0.802,3.2c-0.602,0.8 -1.602,1.397 -2.8,1.397c-1.496,0.003 -2.596,-0.597 -2.596,-1.897m-2.1,-6.7c1.302,-1 3.104,-1.7 4.802,-1.7c2.396,0 3.5,0.8 3.5,3.3l-2.2,0c-1.7,0 -3.7,0.104 -5.2,0.9c-1.5,0.796 -2.602,2.1 -2.602,4.398c0,2.896 2.698,4.602 5.396,4.602c1.802,0 3.802,-1 4.802,-2.7l0.104,0c0,0.5 0,1.5 0.198,2.3l3.5,0c-0.104,-1.199 -0.104,-2.3 -0.198,-3.396c0,-1.104 -0.104,-2.305 -0.104,-3.9l0,-2c0,-4.6 -2,-6.5 -6.698,-6.5c-1.698,0 -3.802,0.5 -5.398,1.2l0.098,3.496Zm4.1,-10.6l-3.5,0l0,3.5l3.5,0l0,-3.5Zm2.7,3.5l3.5,0l0,-3.5l-3.5,0l0,3.5Zm-15.8,18.2l4,0l0,-22.5l-4,0l0,22.5Zm-16.7,0l4,0l0,-7.5l0.102,0l5.2,7.5l5.102,0l-6.5,-8.5l5.802,-6.896l-4.806,0l-4.802,6.195l-0.102,0l0,-13.3l-4,0l0.004,22.501Zm-11.7,0l4,0l0,-5.6c0,-2.2 0,-6.3 3.3,-6.3c0.7,0 1.398,0.1 1.8,0.3l0,-4c-0.396,-0.102 -0.8,-0.102 -1.198,-0.102c-2.396,0 -4.102,2.396 -4.198,3.896l-0.104,0l0,-3.5l-3.6,0l0,15.306Zm-16.4,0l12.4,0l0,-3.3l-8.2,0l0,-5.899l7.5,0l0,-3.301l-7.5,0l0,-5.1l8.2,0l0,-3.3l-12.4,0l0,20.9Zm-17,0l4.198,0l0,-4.199l-4.198,0l0,4.199Zm-18.4,0l4,0l0,-7.6c0,-2 0.602,-5.102 3.5,-5.102c2.602,0 2.602,2.5 2.602,4.396l0,8.2l4,0l0,-9.802c0,-3.5 -1.602,-6.104 -5.198,-6.104c-2.102,0 -3.802,0.7 -5.102,2.5l-0.102,0l0,-2.094l-3.8,0l0,15.6l0.102,0l-0.002,0.006Zm-4.3,-4.1c-1.5,0.8 -3.198,1.6 -5.1,1.6c-2.5,0 -4.2,-1.396 -4.4,-3.896l10.7,0c0,-5.4 -1.602,-9.305 -7.398,-9.305c-4.802,0 -7.2,3.699 -7.2,8.199c0,5.104 3,8 8.102,8c2.2,0 3.801,-0.396 5.301,-1.199l-0.005,-3.399Zm-9.5,-5.1c0.2,-2.104 1.302,-3.604 3.602,-3.604c2.302,0 3.102,1.7 3.302,3.604l-6.904,0Zm-21.2,9.2l4,0l0,-7.6c0,-2 0.602,-5.102 3.5,-5.102c2.602,0 2.602,2.5 2.602,4.396l0,8.2l4,0l0,-9.802c0,-3.5 -1.602,-6.104 -5.2,-6.104c-2.102,0 -3.8,1 -4.898,2.5l-0.102,0l0,-9.193l-4,0l0,22.699l0.1,0l-0.002,0.006Zm-2.9,-15.3c-1.102,-0.3 -2.302,-0.5 -3.9,-0.5c-4.8,0 -7.5,3.5 -7.5,8c0,4.7 2.602,8.2 7.602,8.2c1.602,0 2.898,-0.102 4,-0.5l-0.198,-3.3c-0.7,0.3 -1.898,0.698 -3.102,0.698c-2.802,0 -4.2,-2.198 -4.2,-5c0,-2.898 1.6,-4.898 4.1,-4.898c1.2,0 2,0.2 2.7,0.6l0.498,-3.3Zm-14.3,0.1c-1.3,-0.301 -2.5,-0.602 -4.4,-0.602c-3.2,0 -6.102,1.5 -6.102,4.801c0,5.604 7,3.5 7,6.5c0,1.5 -1.602,1.899 -2.602,1.899c-1.398,0 -2.698,-0.399 -4,-1l-0.198,3.3c1.5,0.4 3,0.7 4.602,0.7c3.3,0 6.5,-1.399 6.5,-5c0,-5.603 -7,-4 -7,-6.5c0,-1.3 1.3,-1.7 2.398,-1.7c1.5,0 2.398,0.2 3.602,0.7l0.2,-3.098Zm-21,15.2l4,0l0,-5.6c0,-2.2 0,-6.3 3.302,-6.3c0.698,0 1.398,0.1 1.8,0.3l0,-4c-0.398,-0.102 -0.8,-0.102 -1.198,-0.102c-2.4,0 -4.102,2.396 -4.2,3.896l-0.104,0l0,-3.5l-3.6,0l0,15.306Zm-15.2,-8.1c0,-2.3 1.3,-4.602 3.898,-4.602c2.602,0 3.898,2.199 3.898,4.602c0,2.6 -0.8,5.3 -3.898,5.3c-3.098,0.1 -3.898,-2.7 -3.898,-5.3m-4.2,0.5c0,4.398 3,8 8.102,8c5.102,0 8.102,-3.5 8.102,-8c0,-5.102 -3.5,-8.2 -8.102,-8.2c-4.602,0 -8.102,3.1 -8.102,8.2m-9.2,7.6l4,0l0,-12.5l3.5,0l0,-2.897l-3.5,0l0,-1.9c0,-1.2 0.4,-2.399 1.802,-2.399c0.898,0 1.398,0.305 1.698,0.5l0.302,-3.301c-0.802,-0.199 -1.898,-0.3 -2.898,-0.3c-3.2,0 -4.898,2.2 -4.898,5.2l0,2.2l-3,0l0,2.897l3,0l-0.006,12.5Zm-13.1,0l4,0l0,-5.6c0,-2.2 0,-6.3 3.3,-6.3c0.7,0 1.398,0.1 1.8,0.3l0,-4c-0.398,-0.102 -0.8,-0.102 -1.198,-0.102c-2.398,0 -4.102,2.396 -4.2,3.896l-0.102,0l0,-3.5l-3.6,0l0,15.306Zm-16.4,0l12.4,0l0,-3.3l-8.2,0l0,-5.899l7.5,0l0,-3.301l-7.5,0l0,-5.1l8.2,0l0,-3.3l-12.4,0l0,20.9Z" style="fill:#56a03b;fill-rule:nonzero;"/><path d="M223.3,12.327c-0.1,-2.302 0.9,-4.7 3.5,-4.7c2.5,0 3.802,2.398 3.802,4.8c0,2.1 -1.102,4.8 -3.802,4.8c-2.5,-0.1 -3.5,-2.9 -3.5,-4.9m7.4,6.4l2.198,0l0,-18.7l-2.398,0l0,7.802l-0.1,0c-0.698,-1.2 -2,-2 -4.198,-2c-3.7,0 -5.5,3 -5.5,6.398c0,3.5 1.602,6.9 5.5,6.9c2.3,0 3.698,-1.102 4.398,-2.102l0.102,0l-0.002,1.702Zm-24.3,0l2.398,0l0,-5.898c0,-3.102 1.2,-5.2 3.9,-5.2c2,0.1 2.698,1.6 2.698,4.5l0,6.6l2.302,0l0,-7.6c0,-3.4 -1.5,-5.5 -4.802,-5.5c-1.8,0 -3.5,0.898 -4.198,2.3l-0.1,0l0,-2l-2.3,0l0,12.8l0.102,-0.002Zm-4,-12.7l-2.4,0l0,5.9c0,3.1 -1.2,5.2 -3.898,5.2c-2,-0.102 -2.7,-1.602 -2.7,-4.5l0,-6.6l-2.402,0l0,7.602c0,3.398 1.5,5.5 4.8,5.5c1.802,0 3.5,-0.9 4.2,-2.3l0,2l2.3,0l0,-12.802l0.1,0Zm-30.5,5.1c0.2,-1.602 1.102,-3.5 3.398,-3.5c2,0 3.2,1.6 3.2,3.5l-6.598,0Zm8.1,4.8c-0.602,0.5 -2.398,1.3 -3.898,1.3c-2.2,0 -4.2,-1.7 -4.2,-4.2l9.1,0c0,-4.1 -1.398,-7.198 -5.602,-7.198c-3.602,0 -6,2.698 -6,6.398c0,4.102 2.102,6.9 6.602,6.9c2.102,0 3.102,-0.5 4,-0.8l-0.002,-2.4Zm-23.4,-3.6c0,-2.302 1,-4.7 3.5,-4.7c2.602,0 3.8,2.398 3.8,4.8c0,2.1 -1.102,4.8 -3.8,4.8c-2.5,-0.1 -3.5,-2.9 -3.5,-4.9m7.4,6.4l2.2,0l0,-18.7l-2.4,0l0,7.802c-0.698,-1.2 -2,-2 -4.198,-2c-3.7,0 -5.5,3 -5.5,6.398c0,3.5 1.602,6.9 5.5,6.9c2.3,0 3.698,-1.102 4.398,-2.102l0,1.702Zm-24.3,0l2.398,0l0,-5.898c0,-3.102 1.198,-5.2 3.898,-5.2c2,0.1 2.7,1.6 2.7,4.5l0,6.6l2.398,0l0,-7.6c0,-3.4 -1.5,-5.5 -4.802,-5.5c-1.8,0 -3.5,0.898 -4.198,2.3l0,-2l-2.302,0l0,12.8l-0.092,-0.002Zm-4,-12.7l-2.4,0l0,5.9c0,3.1 -1.198,5.2 -3.898,5.2c-2,-0.102 -2.698,-1.602 -2.698,-4.5l0,-6.6l-2.304,0l0,7.602c0,3.398 1.5,5.5 4.802,5.5c1.8,0 3.5,-0.9 4.198,-2.3l0.102,0l0,2l2.302,0l0,-12.802l-0.104,0Zm-25.2,12.7l2.398,0l0,-6.5l5.7,6.5l3.398,0l-6.7,-7.1l5.9,-5.602l-3.196,0l-5.102,5.2l0,-11.2l-2.398,0l0,18.702Zm-6.6,0l2.398,0l0,-18.7l-2.398,0l0,18.7Zm-4.5,-18.2l-2.7,0l0,2.602l2.698,0l0.002,-2.602Zm-2.5,18.2l2.302,0l0,-12.7l-2.302,0l0,12.7Zm-12.5,-7.6c0.2,-1.602 1.102,-3.5 3.398,-3.5c2,0 3.2,1.6 3.2,3.5l-6.598,0Zm8.1,4.8c-0.602,0.5 -2.398,1.3 -3.898,1.3c-2.2,0 -4.2,-1.7 -4.2,-4.2l9.1,0c0,-4.1 -1.398,-7.198 -5.602,-7.198c-3.602,0 -6,2.698 -6,6.398c0.002,4.102 2.102,6.9 6.602,6.9c2.102,0 3.102,-0.5 4,-0.8l-0.002,-2.4Zm-25,2.8l2.4,0l0,-5.898c0,-3.102 1.2,-5.2 3.898,-5.2c2,0.1 2.7,1.6 2.7,4.5l0,6.6l2.4,0l0,-7.6c0,-3.4 -1.5,-5.5 -4.8,-5.5c-1.802,0 -3.2,0.8 -4.102,2.1l0,-7.7l-2.396,0l0,18.7l-0.1,-0.002Zm-9.8,0l2.4,0l0,-5.8c0,-3.2 1.398,-5.2 3.5,-5.2c0.398,0 0.898,0 1.3,0.2l0,-2c-0.5,-0.1 -0.9,-0.2 -1.5,-0.2c-1.4,0 -2.7,0.9 -3.3,2.3l0,-2l-2.2,0l0,12.7l-0.2,0Zm-4,-12.7l-2.4,0l0,5.9c0,3.1 -1.198,5.2 -3.898,5.2c-2,-0.102 -2.698,-1.602 -2.698,-4.5l0,-6.6l-2.399,0l0,7.602c0,3.398 1.5,5.5 4.801,5.5c1.8,0 3.5,-0.9 4.199,-2.3l0.101,0l0,2l2.3,0l0,-12.802l-0.006,0Zm-14.2,0l-3.4,0l0,-3.7l-2.4,0.8l0,3l-2.9,0l0,1.898l2.9,0l0,7.5c0,2.5 1.5,3.7 3.898,3.7c0.8,0 1.5,-0.2 2,-0.3l0,-2c-0.398,0.2 -0.898,0.4 -1.6,0.4c-1.102,0 -2,-0.802 -2,-2.302l0,-7l3.4,0l0,-2l0.102,0l0,0.004Zm-13.1,7.8c0,1.898 -1.198,3.398 -3.5,3.398c-1.102,0 -2.398,-0.7 -2.398,-2.1c0,-2.2 3.102,-2.5 4.398,-2.5c0.5,0 1,0 1.5,0l0,1.202Zm-6.8,-4.9c0.898,-0.8 2.398,-1.3 3.698,-1.3c2.4,0 3.102,1.1 3.102,3.3c-0.898,0 -1.602,0 -2.5,0c-2.4,0 -5.9,1 -5.9,4.2c0,2.8 1.898,4 4.7,4c2.198,0 3.398,-1.2 4,-1.9l0,1.602l2.2,0c0,-0.4 -0.102,-1 -0.102,-2.5l0,-5.302c0,-3.5 -1.5,-5.3 -5.1,-5.3c-1.602,0 -3,0.5 -4.2,1.2l0.102,2Zm-18.6,9.8l2.5,0l0,-14.3l7.9,14.4l3.2,0l0,-17.5l-2.5,0l0,14.1l-7.7,-14.1l-3.4,0l0,17.4Z" style="fill:#56a03b;fill-rule:nonzero;"/></g><g id="Komplementärmedizin"><g><path d="M244.207,1.3l2.499,0l0,7.673l7.448,-7.673l3.324,0l-8.198,8.248l8.848,9.198l-3.647,0l-7.773,-8.55l0,8.55l-2.499,0l-0.002,-17.446Z" style="fill:#56a03b;fill-rule:nonzero;"/><path d="M266.18,5.698c3.874,0 6.474,2.801 6.474,6.675c0,3.647 -2.649,6.673 -6.474,6.673c-3.851,0 -6.498,-3.024 -6.498,-6.673c0,-3.875 2.599,-6.675 6.498,-6.675Zm0,11.448c2.75,0 3.974,-2.5 3.974,-4.772c0,-2.426 -1.475,-4.774 -3.974,-4.774c-2.524,0 -3.999,2.35 -3.999,4.774c0,2.273 1.225,4.772 3.999,4.772Z" style="fill:#56a03b;fill-rule:nonzero;"/><path d="M275.781,5.999l2.199,0l0,1.85l0.05,0c0.899,-1.475 2.174,-2.147 4.049,-2.147c1.477,0 2.949,0.75 3.625,2.475c0.874,-1.825 2.799,-2.475 3.948,-2.475c3.25,0 4.425,2.1 4.425,4.872l0,8.175l-2.351,0l0,-7.6c0,-1.575 -0.375,-3.549 -2.273,-3.549c-2.396,0 -3.35,2.352 -3.35,4.724l0,6.425l-2.351,0l0,-7.6c0,-1.575 -0.375,-3.549 -2.272,-3.549c-2.399,0 -3.352,2.352 -3.352,4.724l0,6.425l-2.349,0l0.002,-12.75Z" style="fill:#56a03b;fill-rule:nonzero;"/><path d="M298.031,5.999l2.249,0l0,1.8l0.05,0c0.625,-0.95 2.074,-2.102 4.324,-2.102c3.698,0 5.498,3.024 5.498,6.448c0,3.5 -1.624,6.898 -5.477,6.898c-2.247,0 -3.521,-0.875 -4.247,-2.049l-0.052,0l0,6.998l-2.349,0l0.004,-17.993Zm6.123,1.599c-2.551,0 -3.774,2.425 -3.774,4.799c0,2.125 1.103,4.749 3.749,4.749c2.524,0 3.574,-2.824 3.524,-4.824c0.05,-2.299 -0.949,-4.724 -3.499,-4.724Z" style="fill:#56a03b;fill-rule:nonzero;"/><rect x="313.605" y="0" width="2.349" height="18.746" style="fill:#56a03b;fill-rule:nonzero;"/><path d="M330.028,18.221c-0.9,0.325 -1.925,0.825 -4.024,0.825c-4.521,0 -6.599,-2.749 -6.599,-6.898c0,-3.772 2.375,-6.446 5.974,-6.446c4.249,0 5.624,3.099 5.624,7.196l-9.098,0c0,2.524 1.975,4.249 4.198,4.249c1.55,0 3.35,-0.8 3.925,-1.273l0,2.347Zm-1.525,-7.073c0,-1.95 -1.147,-3.549 -3.174,-3.549c-2.3,0 -3.249,1.9 -3.424,3.549l6.598,0Z" style="fill:#56a03b;fill-rule:nonzero;"/><path d="M334.131,5.999l2.199,0l0,1.85l0.05,0c0.9,-1.475 2.177,-2.147 4.052,-2.147c1.476,0 2.947,0.75 3.624,2.475c0.874,-1.825 2.799,-2.475 3.946,-2.475c3.25,0 4.425,2.1 4.425,4.872l0,8.175l-2.35,0l0,-7.6c0,-1.575 -0.375,-3.549 -2.272,-3.549c-2.398,0 -3.352,2.352 -3.352,4.724l0,6.425l-2.351,0l0,-7.6c0,-1.575 -0.375,-3.549 -2.273,-3.549c-2.397,0 -3.349,2.352 -3.349,4.724l0,6.425l-2.353,0l0.004,-12.75Z" style="fill:#56a03b;fill-rule:nonzero;"/><path d="M366.153,18.221c-0.9,0.325 -1.925,0.825 -4.024,0.825c-4.521,0 -6.599,-2.749 -6.599,-6.898c0,-3.772 2.375,-6.446 5.974,-6.446c4.249,0 5.624,3.099 5.624,7.196l-9.098,0c0,2.524 1.975,4.249 4.198,4.249c1.55,0 3.35,-0.8 3.925,-1.273l0,2.347Zm-1.525,-7.073c0,-1.95 -1.147,-3.549 -3.174,-3.549c-2.3,0 -3.249,1.9 -3.424,3.549l6.598,0Z" style="fill:#56a03b;fill-rule:nonzero;"/><path d="M370.281,5.999l2.273,0l0,2.023l0.051,0c0.698,-1.45 2.396,-2.325 4.174,-2.325c3.299,0 4.772,2.052 4.772,5.476l0,7.573l-2.351,0l0,-6.601c0,-2.974 -0.647,-4.424 -2.699,-4.549c-2.674,0 -3.874,2.149 -3.874,5.249l0,5.898l-2.349,0l0.003,-12.744Z" style="fill:#56a03b;fill-rule:nonzero;"/><path d="M392.328,7.898l-3.374,0l0,6.975c0,1.475 0.899,2.272 1.977,2.272c0.726,0 1.25,-0.225 1.601,-0.45l0,2c-0.524,0.15 -1.25,0.352 -1.999,0.352c-2.425,0 -3.925,-1.149 -3.925,-3.699l0,-7.45l-2.874,0l0,-1.9l2.874,0l0,-2.949l2.35,-0.75l0,3.699l3.374,0l-0.004,1.9Z" style="fill:#56a03b;fill-rule:nonzero;"/><path d="M395.88,6.898c1.177,-0.7 2.574,-1.2 4.198,-1.2c3.648,0 5.124,1.802 5.124,5.274l0,5.273c0,1.448 0.05,2.125 0.103,2.5l-2.2,0l0,-1.649l-0.05,0c-0.552,0.774 -1.802,1.949 -3.949,1.949c-2.748,0 -4.674,-1.2 -4.674,-3.976c0,-3.197 3.499,-4.197 5.924,-4.197c0.926,0 1.574,0 2.499,0.05c0,-2.199 -0.8,-3.324 -3.147,-3.324c-1.325,0 -2.75,0.5 -3.699,1.3l-0.129,-2Zm6.973,5.774c-0.499,0 -0.999,-0.05 -1.499,-0.05c-1.274,0 -4.424,0.198 -4.424,2.447c0,1.352 1.301,2.075 2.374,2.075c2.322,0 3.549,-1.45 3.549,-3.349l0,-1.123Zm-5.849,-11.122l2.352,0l0,2.5l-2.352,0l0,-2.5Zm4.1,0l2.351,0l0,2.5l-2.351,0l0,-2.5Z" style="fill:#56a03b;fill-rule:nonzero;"/><path d="M409.18,5.999l2.198,0l0,1.975l0.052,0c0.625,-1.325 1.976,-2.272 3.322,-2.272c0.7,0 1.052,0.073 1.552,0.175l0,2.1c-0.427,-0.175 -0.899,-0.225 -1.302,-0.225c-2.1,0 -3.475,1.999 -3.475,5.196l0,5.801l-2.352,0l0.005,-12.75Z" style="fill:#56a03b;fill-rule:nonzero;"/><path d="M418.882,5.999l2.197,0l0,1.85l0.052,0c0.898,-1.475 2.175,-2.147 4.05,-2.147c1.476,0 2.949,0.75 3.624,2.475c0.874,-1.825 2.799,-2.475 3.946,-2.475c3.25,0 4.427,2.1 4.427,4.872l0,8.175l-2.352,0l0,-7.6c0,-1.575 -0.375,-3.549 -2.272,-3.549c-2.398,0 -3.352,2.352 -3.352,4.724l0,6.425l-2.351,0l0,-7.6c0,-1.575 -0.375,-3.549 -2.273,-3.549c-2.397,0 -3.35,2.352 -3.35,4.724l0,6.425l-2.352,0l0.006,-12.75Z" style="fill:#56a03b;fill-rule:nonzero;"/><path d="M450.902,18.221c-0.898,0.325 -1.926,0.825 -4.022,0.825c-4.522,0 -6.601,-2.749 -6.601,-6.898c0,-3.772 2.375,-6.446 5.976,-6.446c4.249,0 5.624,3.099 5.624,7.196l-9.1,0c0,2.524 1.977,4.249 4.197,4.249c1.551,0 3.351,-0.8 3.926,-1.273l0,2.347Zm-1.523,-7.073c0,-1.95 -1.148,-3.549 -3.176,-3.549c-2.3,0 -3.249,1.9 -3.424,3.549l6.6,0Z" style="fill:#56a03b;fill-rule:nonzero;"/><path d="M464.053,16.946l-0.05,0c-0.625,0.95 -2.075,2.102 -4.352,2.102c-3.85,0 -5.475,-3.424 -5.475,-6.898c0,-3.424 1.8,-6.446 5.499,-6.446c2.226,0 3.499,0.875 4.225,2.05l0.05,0l0,-7.754l2.352,0l0,18.746l-2.249,0l0,-1.8Zm-3.85,0.2c2.648,0 3.749,-2.625 3.749,-4.749c0,-2.374 -1.226,-4.799 -3.771,-4.799c-2.55,0 -3.55,2.399 -3.499,4.724c-0.051,2 0.997,4.824 3.521,4.824Z" style="fill:#56a03b;fill-rule:nonzero;"/><path d="M473.104,3.149l-2.648,0l0,-2.649l2.648,0l0,2.649Zm-2.5,2.85l2.35,0l0,12.747l-2.35,0l0,-12.747Z" style="fill:#56a03b;fill-rule:nonzero;"/><path d="M476.33,16.696l7.35,-8.798l-6.998,0l0,-1.9l9.724,0l0,2.05l-7.35,8.798l7.623,0l0,1.899l-10.349,0l0,-2.049Z" style="fill:#56a03b;fill-rule:nonzero;"/><path d="M492.554,3.149l-2.648,0l0,-2.649l2.648,0l0,2.649Zm-2.499,2.85l2.35,0l0,12.747l-2.35,0l0,-12.747Z" style="fill:#56a03b;fill-rule:nonzero;"/><path d="M496.705,5.999l2.273,0l0,2.023l0.051,0c0.698,-1.45 2.398,-2.325 4.174,-2.325c3.301,0 4.772,2.052 4.772,5.476l0,7.573l-2.35,0l0,-6.601c0,-2.974 -0.649,-4.424 -2.699,-4.549c-2.674,0 -3.874,2.149 -3.874,5.249l0,5.898l-2.351,0l0.004,-12.744Z" style="fill:#56a03b;fill-rule:nonzero;"/></g></g></g></svg>
